<svg xmlns="http://www.w3.org/2000/svg" viewBox="0 0 96 96" width="96" height="96" role="img" aria-label="generico">
  <g transform="translate(48 48) scale(2.5535) translate(0.00 2.96)" stroke-linecap="round">
    <polygon points="-3.04,-12.48 8.31,-10.72 8.31,-4.80 -3.04,-6.56" fill="#7A5CDE" stroke="#7A5CDE" stroke-width="0.45" stroke-linejoin="round"></polygon>
    <polygon points="-11.36,-7.68 -3.04,-12.48 -3.04,-6.56 -11.36,-1.76" fill="#7A5CDE" stroke="#7A5CDE" stroke-width="0.45" stroke-linejoin="round"></polygon>
    <polygon points="8.31,-10.72 11.36,-4.16 11.36,1.76 8.31,-4.80" fill="#8C6EE6" stroke="#8C6EE6" stroke-width="0.45" stroke-linejoin="round"></polygon>
    <polygon points="-8.31,-1.12 -11.36,-7.68 -11.36,-1.76 -8.31,4.80" fill="#8C6EE6" stroke="#8C6EE6" stroke-width="0.45" stroke-linejoin="round"></polygon>
    <polygon points="11.36,-4.16 3.04,0.64 3.04,6.56 11.36,1.76" fill="#A88CF3" stroke="#A88CF3" stroke-width="0.45" stroke-linejoin="round"></polygon>
    <polygon points="3.04,0.64 -8.31,-1.12 -8.31,4.80 3.04,6.56" fill="#A88CF3" stroke="#A88CF3" stroke-width="0.45" stroke-linejoin="round"></polygon>
    <polygon points="3.04,0.64 -8.31,-1.12 -11.36,-7.68 -3.04,-12.48 8.31,-10.72 11.36,-4.16" fill="#CFC0FF" stroke="#CFC0FF" stroke-width="0.45" stroke-linejoin="round"></polygon>
    <polygon points="1.78,-2.16 -4.85,-3.18 -6.62,-7.01 -1.78,-9.81 4.85,-8.78 6.62,-4.96" fill="#F5F2FF"></polygon>
    <ellipse cx="0.00" cy="-6.05" rx="1.96" ry="1.13" fill="#7C5CF0"></ellipse>
  </g>
</svg>